<svg width="220" height="70" viewBox="0 0 220 70" fill="none" xmlns="http://www.w3.org/2000/svg">
<g clip-path="url(#clip0_83_3195)">
<rect width="220" height="70" fill="#F6F6F6"/>
<path d="M11.0957 61.6973L11.0957 28.1774" stroke="#0013BA" stroke-width="3.92132"/>
<path d="M19.6426 61.6973L19.6426 28.1774" stroke="#F37413" stroke-width="3.92132"/>
<line x1="28.0989" y1="61.6973" x2="28.0989" y2="28.1774" stroke="#B10000" stroke-width="3.92132"/>
<path d="M34.7204 28.2773H40.2917L46.1761 42.6334H46.4265L52.3108 28.2773H57.8822V49.6445H53.5002V35.737H53.3228L47.7932 49.5402H44.8093L39.2797 35.6849H39.1024V49.6445H34.7204V28.2773ZM63.965 49.6445H59.124L66.5003 28.2773H72.3221L79.6879 49.6445H74.8469L69.4947 33.16H69.3277L63.965 49.6445ZM63.6625 41.2458H75.0973V44.7722H63.6625V41.2458ZM80.9376 49.6445V28.2773H85.4552V37.0934H94.626V28.2773H99.1332V49.6445H94.626V40.818H85.4552V49.6445H80.9376ZM105.219 49.6445H100.378L107.754 28.2773H113.576L120.942 49.6445H116.101L110.748 33.16H110.581L105.219 49.6445ZM104.916 41.2458H116.351V44.7722H104.916V41.2458ZM122.191 49.6445V28.2773H130.621C132.242 28.2773 133.623 28.5868 134.763 29.2058C135.904 29.8179 136.773 30.67 137.372 31.762C137.977 32.847 138.279 34.099 138.279 35.5179C138.279 36.9369 137.973 38.1888 137.361 39.2739C136.749 40.359 135.862 41.204 134.701 41.8092C133.546 42.4143 132.148 42.7169 130.507 42.7169H125.133V39.0965H129.776C130.646 39.0965 131.362 38.947 131.925 38.6479C132.496 38.3419 132.92 37.9211 133.198 37.3855C133.483 36.843 133.626 36.2204 133.626 35.5179C133.626 34.8085 133.483 34.1894 133.198 33.6608C132.92 33.1253 132.496 32.7114 131.925 32.4193C131.355 32.1202 130.632 31.9706 129.755 31.9706H126.709V49.6445H122.191ZM141.107 49.6445H136.266L143.642 28.2773H149.464L156.83 49.6445H151.989L146.637 33.16H146.47L141.107 49.6445ZM140.804 41.2458H152.239V44.7722H140.804V41.2458ZM154.655 32.0019V28.2773H172.204V32.0019H165.662V49.6445H161.196V32.0019H154.655ZM173.771 49.6445V28.2773H182.201C183.815 28.2773 185.192 28.5659 186.333 29.1432C187.481 29.7136 188.354 30.5239 188.952 31.5742C189.557 32.6175 189.859 33.8451 189.859 35.2571C189.859 36.676 189.553 37.8967 188.941 38.9192C188.329 39.9347 187.442 40.7137 186.281 41.2562C185.126 41.7987 183.728 42.07 182.087 42.07H176.442V38.4392H181.356C182.219 38.4392 182.935 38.321 183.506 38.0845C184.076 37.848 184.5 37.4933 184.778 37.0203C185.064 36.5474 185.206 35.9596 185.206 35.2571C185.206 34.5477 185.064 33.9495 184.778 33.4626C184.5 32.9757 184.072 32.6071 183.495 32.3567C182.925 32.0993 182.205 31.9706 181.336 31.9706H178.289V49.6445H173.771ZM185.311 39.9208L190.621 49.6445H185.634L180.438 39.9208H185.311ZM195.413 49.6445H190.572L197.948 28.2773H203.77L211.136 49.6445H206.295L200.942 33.16H200.776L195.413 49.6445ZM195.11 41.2458H206.545V44.7722H195.11V41.2458Z" fill="#B10000"/>
<path d="M39.061 54.8592H40.56V59.4635C40.56 59.9805 40.4365 60.4329 40.1896 60.8206C39.9449 61.2084 39.6022 61.5107 39.1614 61.7277C38.7206 61.9423 38.2071 62.0496 37.6208 62.0496C37.0323 62.0496 36.5176 61.9423 36.0768 61.7277C35.636 61.5107 35.2933 61.2084 35.0486 60.8206C34.804 60.4329 34.6817 59.9805 34.6817 59.4635V54.8592H36.1807V59.3355C36.1807 59.6055 36.2395 59.8455 36.3572 60.0555C36.4772 60.2656 36.6457 60.4306 36.8627 60.5506C37.0796 60.6706 37.3323 60.7306 37.6208 60.7306C37.9116 60.7306 38.1644 60.6706 38.379 60.5506C38.5959 60.4306 38.7633 60.2656 38.881 60.0555C39.001 59.8455 39.061 59.6055 39.061 59.3355V54.8592ZM47.2849 54.8592V61.9492H45.9902L42.9056 57.4868H42.8537V61.9492H41.3546V54.8592H42.6702L45.7305 59.3181H45.7928V54.8592H47.2849ZM49.5838 54.8592V61.9492H48.0847V54.8592H49.5838ZM51.6593 54.8592L53.373 60.2459H53.4387L55.1558 54.8592H56.8176L54.3734 61.9492H52.4417L49.9941 54.8592H51.6593ZM57.2322 61.9492V54.8592H62.0097V56.0951H58.7313V57.7845H61.7639V59.0204H58.7313V60.7133H62.0236V61.9492H57.2322ZM62.7628 61.9492V54.8592H65.56C66.0955 54.8592 66.5525 54.955 66.931 55.1465C67.3118 55.3358 67.6014 55.6046 67.7999 55.9531C68.0007 56.2993 68.1011 56.7067 68.1011 57.1752C68.1011 57.646 67.9995 58.0511 67.7964 58.3903C67.5933 58.7273 67.2991 58.9858 66.9137 59.1658C66.5305 59.3458 66.0666 59.4359 65.522 59.4359H63.649V58.2311H65.2796C65.5658 58.2311 65.8035 58.1919 65.9928 58.1134C66.182 58.0349 66.3228 57.9172 66.4151 57.7603C66.5098 57.6033 66.5571 57.4083 66.5571 57.1752C66.5571 56.9398 66.5098 56.7413 66.4151 56.5798C66.3228 56.4182 66.1809 56.2959 65.9893 56.2128C65.8001 56.1274 65.5612 56.0847 65.2727 56.0847H64.2618V61.9492H62.7628ZM66.5917 58.7227L68.3538 61.9492H66.699L64.975 58.7227H66.5917ZM72.568 56.8983C72.5403 56.619 72.4214 56.402 72.2114 56.2474C72.0014 56.0928 71.7163 56.0155 71.3563 56.0155C71.1116 56.0155 70.9051 56.0501 70.7366 56.1193C70.5681 56.1863 70.4389 56.2797 70.3489 56.3997C70.2612 56.5198 70.2173 56.6559 70.2173 56.8082C70.2127 56.9352 70.2392 57.046 70.2969 57.1406C70.3569 57.2352 70.4389 57.3172 70.5427 57.3864C70.6466 57.4533 70.7666 57.5122 70.9028 57.5629C71.0389 57.6114 71.1843 57.653 71.339 57.6876L71.976 57.8399C72.2852 57.9091 72.5691 58.0015 72.8276 58.1169C73.0861 58.2323 73.31 58.3742 73.4992 58.5427C73.6885 58.7112 73.835 58.9096 73.9389 59.1381C74.0451 59.3666 74.0993 59.6286 74.1016 59.924C74.0993 60.3579 73.9885 60.7341 73.7693 61.0526C73.5523 61.3688 73.2384 61.6146 72.8276 61.79C72.4191 61.9631 71.9263 62.0496 71.3494 62.0496C70.777 62.0496 70.2785 61.9619 69.8538 61.7865C69.4314 61.6111 69.1014 61.3515 68.8637 61.0076C68.6283 60.6614 68.5048 60.2333 68.4933 59.7232H69.9438C69.96 59.9609 70.0281 60.1594 70.1481 60.3186C70.2704 60.4756 70.4331 60.5944 70.6362 60.6752C70.8416 60.7537 71.0736 60.7929 71.332 60.7929C71.5859 60.7929 71.8063 60.756 71.9933 60.6822C72.1825 60.6083 72.3291 60.5056 72.4329 60.374C72.5368 60.2425 72.5887 60.0913 72.5887 59.9205C72.5887 59.7613 72.5414 59.6274 72.4468 59.5189C72.3545 59.4105 72.2183 59.3181 72.0383 59.242C71.8606 59.1658 71.6425 59.0966 71.384 59.0343L70.612 58.8404C70.0142 58.695 69.5422 58.4677 69.196 58.1584C68.8498 57.8491 68.6779 57.4325 68.6802 56.9086C68.6779 56.4794 68.7921 56.1043 69.0229 55.7835C69.256 55.4627 69.5757 55.2123 69.9819 55.0323C70.3881 54.8523 70.8497 54.7622 71.3667 54.7622C71.8929 54.7622 72.3522 54.8523 72.7445 55.0323C73.1392 55.2123 73.4461 55.4627 73.6654 55.7835C73.8846 56.1043 73.9977 56.4759 74.0047 56.8983H72.568ZM75.7314 61.9492H74.1251L76.5727 54.8592H78.5044L80.9485 61.9492H79.3422L77.5662 56.4794H77.5108L75.7314 61.9492ZM75.631 59.1624H79.4253V60.3325H75.631V59.1624ZM81.3632 61.9492V54.8592H82.8622V60.7133H85.9018V61.9492H81.3632ZM88.2734 61.9492V54.8592H89.7725V60.7133H92.812V61.9492H88.2734ZM94.8651 54.8592V61.9492H93.366V54.8592H94.8651ZM95.6597 54.8592H97.5084L99.4609 59.6228H99.544L101.497 54.8592H103.345V61.9492H101.891V57.3345H101.832L99.9975 61.9146H99.0074L97.1726 57.3172H97.1137V61.9492H95.6597V54.8592ZM105.641 54.8592V61.9492H104.142V54.8592H105.641ZM106.165 56.0951V54.8592H111.988V56.0951H109.817V61.9492H108.336V56.0951H106.165ZM112.508 61.9492V54.8592H117.286V56.0951H114.007V57.7845H117.04V59.0204H114.007V60.7133H117.3V61.9492H112.508ZM120.552 61.9492H118.039V54.8592H120.573C121.286 54.8592 121.9 55.0011 122.415 55.285C122.929 55.5666 123.325 55.9716 123.602 56.5001C123.882 57.0287 124.021 57.661 124.021 58.3973C124.021 59.1358 123.882 59.7705 123.602 60.3013C123.325 60.8322 122.927 61.2395 122.408 61.5234C121.891 61.8073 121.272 61.9492 120.552 61.9492ZM119.538 60.6648H120.49C120.933 60.6648 121.306 60.5864 121.608 60.4294C121.913 60.2702 122.141 60.0244 122.294 59.692C122.448 59.3574 122.526 58.9258 122.526 58.3973C122.526 57.8734 122.448 57.4452 122.294 57.1129C122.141 56.7806 121.914 56.5359 121.612 56.379C121.309 56.222 120.937 56.1436 120.493 56.1436H119.538V60.6648Z" fill="#1D1D1D"/>
</g>
<defs>
<clipPath id="clip0_83_3195">
<rect width="220" height="70" fill="white"/>
</clipPath>
</defs>
</svg>
